<?xml version="1.0" encoding="utf-8"?>
<svg xmlns="http://www.w3.org/2000/svg" xmlns:xlink="http://www.w3.org/1999/xlink" xml:space="preserve" width="980" height="980" viewBox="0 0 980 980"><rect width="980" height="980" fill="#ffffff" x="0" y="0"/><g fill="#000000">
<g transform="translate(200,40) scale(3.4333333333333)"><rect width="6" height="6"/></g>
<g transform="translate(220,40) scale(3.4333333333333)"><rect width="6" height="6"/></g>
<g transform="translate(280,40) scale(3.4333333333333)"><rect width="6" height="6"/></g>
<g transform="translate(340,40) scale(3.4333333333333)"><rect width="6" height="6"/></g>
<g transform="translate(360,40) scale(3.4333333333333)"><rect width="6" height="6"/></g>
<g transform="translate(380,40) scale(3.4333333333333)"><rect width="6" height="6"/></g>
<g transform="translate(400,40) scale(3.4333333333333)"><rect width="6" height="6"/></g>
<g transform="translate(420,40) scale(3.4333333333333)"><rect width="6" height="6"/></g>
<g transform="translate(460,40) scale(3.4333333333333)"><rect width="6" height="6"/></g>
<g transform="translate(480,40) scale(3.4333333333333)"><rect width="6" height="6"/></g>
<g transform="translate(500,40) scale(3.4333333333333)"><rect width="6" height="6"/></g>
<g transform="translate(540,40) scale(3.4333333333333)"><rect width="6" height="6"/></g>
<g transform="translate(580,40) scale(3.4333333333333)"><rect width="6" height="6"/></g>
<g transform="translate(600,40) scale(3.4333333333333)"><rect width="6" height="6"/></g>
<g transform="translate(620,40) scale(3.4333333333333)"><rect width="6" height="6"/></g>
<g transform="translate(640,40) scale(3.4333333333333)"><rect width="6" height="6"/></g>
<g transform="translate(760,40) scale(3.4333333333333)"><rect width="6" height="6"/></g>
<g transform="translate(200,60) scale(3.4333333333333)"><rect width="6" height="6"/></g>
<g transform="translate(220,60) scale(3.4333333333333)"><rect width="6" height="6"/></g>
<g transform="translate(280,60) scale(3.4333333333333)"><rect width="6" height="6"/></g>
<g transform="translate(300,60) scale(3.4333333333333)"><rect width="6" height="6"/></g>
<g transform="translate(340,60) scale(3.4333333333333)"><rect width="6" height="6"/></g>
<g transform="translate(420,60) scale(3.4333333333333)"><rect width="6" height="6"/></g>
<g transform="translate(460,60) scale(3.4333333333333)"><rect width="6" height="6"/></g>
<g transform="translate(480,60) scale(3.4333333333333)"><rect width="6" height="6"/></g>
<g transform="translate(500,60) scale(3.4333333333333)"><rect width="6" height="6"/></g>
<g transform="translate(560,60) scale(3.4333333333333)"><rect width="6" height="6"/></g>
<g transform="translate(580,60) scale(3.4333333333333)"><rect width="6" height="6"/></g>
<g transform="translate(660,60) scale(3.4333333333333)"><rect width="6" height="6"/></g>
<g transform="translate(740,60) scale(3.4333333333333)"><rect width="6" height="6"/></g>
<g transform="translate(200,80) scale(3.4333333333333)"><rect width="6" height="6"/></g>
<g transform="translate(260,80) scale(3.4333333333333)"><rect width="6" height="6"/></g>
<g transform="translate(280,80) scale(3.4333333333333)"><rect width="6" height="6"/></g>
<g transform="translate(320,80) scale(3.4333333333333)"><rect width="6" height="6"/></g>
<g transform="translate(340,80) scale(3.4333333333333)"><rect width="6" height="6"/></g>
<g transform="translate(360,80) scale(3.4333333333333)"><rect width="6" height="6"/></g>
<g transform="translate(460,80) scale(3.4333333333333)"><rect width="6" height="6"/></g>
<g transform="translate(480,80) scale(3.4333333333333)"><rect width="6" height="6"/></g>
<g transform="translate(500,80) scale(3.4333333333333)"><rect width="6" height="6"/></g>
<g transform="translate(580,80) scale(3.4333333333333)"><rect width="6" height="6"/></g>
<g transform="translate(600,80) scale(3.4333333333333)"><rect width="6" height="6"/></g>
<g transform="translate(620,80) scale(3.4333333333333)"><rect width="6" height="6"/></g>
<g transform="translate(640,80) scale(3.4333333333333)"><rect width="6" height="6"/></g>
<g transform="translate(660,80) scale(3.4333333333333)"><rect width="6" height="6"/></g>
<g transform="translate(700,80) scale(3.4333333333333)"><rect width="6" height="6"/></g>
<g transform="translate(740,80) scale(3.4333333333333)"><rect width="6" height="6"/></g>
<g transform="translate(280,100) scale(3.4333333333333)"><rect width="6" height="6"/></g>
<g transform="translate(300,100) scale(3.4333333333333)"><rect width="6" height="6"/></g>
<g transform="translate(340,100) scale(3.4333333333333)"><rect width="6" height="6"/></g>
<g transform="translate(360,100) scale(3.4333333333333)"><rect width="6" height="6"/></g>
<g transform="translate(400,100) scale(3.4333333333333)"><rect width="6" height="6"/></g>
<g transform="translate(440,100) scale(3.4333333333333)"><rect width="6" height="6"/></g>
<g transform="translate(460,100) scale(3.4333333333333)"><rect width="6" height="6"/></g>
<g transform="translate(540,100) scale(3.4333333333333)"><rect width="6" height="6"/></g>
<g transform="translate(580,100) scale(3.4333333333333)"><rect width="6" height="6"/></g>
<g transform="translate(740,100) scale(3.4333333333333)"><rect width="6" height="6"/></g>
<g transform="translate(760,100) scale(3.4333333333333)"><rect width="6" height="6"/></g>
<g transform="translate(220,120) scale(3.4333333333333)"><rect width="6" height="6"/></g>
<g transform="translate(260,120) scale(3.4333333333333)"><rect width="6" height="6"/></g>
<g transform="translate(320,120) scale(3.4333333333333)"><rect width="6" height="6"/></g>
<g transform="translate(340,120) scale(3.4333333333333)"><rect width="6" height="6"/></g>
<g transform="translate(380,120) scale(3.4333333333333)"><rect width="6" height="6"/></g>
<g transform="translate(420,120) scale(3.4333333333333)"><rect width="6" height="6"/></g>
<g transform="translate(440,120) scale(3.4333333333333)"><rect width="6" height="6"/></g>
<g transform="translate(460,120) scale(3.4333333333333)"><rect width="6" height="6"/></g>
<g transform="translate(480,120) scale(3.4333333333333)"><rect width="6" height="6"/></g>
<g transform="translate(500,120) scale(3.4333333333333)"><rect width="6" height="6"/></g>
<g transform="translate(520,120) scale(3.4333333333333)"><rect width="6" height="6"/></g>
<g transform="translate(560,120) scale(3.4333333333333)"><rect width="6" height="6"/></g>
<g transform="translate(660,120) scale(3.4333333333333)"><rect width="6" height="6"/></g>
<g transform="translate(700,120) scale(3.4333333333333)"><rect width="6" height="6"/></g>
<g transform="translate(720,120) scale(3.4333333333333)"><rect width="6" height="6"/></g>
<g transform="translate(740,120) scale(3.4333333333333)"><rect width="6" height="6"/></g>
<g transform="translate(760,120) scale(3.4333333333333)"><rect width="6" height="6"/></g>
<g transform="translate(200,140) scale(3.4333333333333)"><rect width="6" height="6"/></g>
<g transform="translate(260,140) scale(3.4333333333333)"><rect width="6" height="6"/></g>
<g transform="translate(340,140) scale(3.4333333333333)"><rect width="6" height="6"/></g>
<g transform="translate(380,140) scale(3.4333333333333)"><rect width="6" height="6"/></g>
<g transform="translate(440,140) scale(3.4333333333333)"><rect width="6" height="6"/></g>
<g transform="translate(520,140) scale(3.4333333333333)"><rect width="6" height="6"/></g>
<g transform="translate(540,140) scale(3.4333333333333)"><rect width="6" height="6"/></g>
<g transform="translate(560,140) scale(3.4333333333333)"><rect width="6" height="6"/></g>
<g transform="translate(600,140) scale(3.4333333333333)"><rect width="6" height="6"/></g>
<g transform="translate(620,140) scale(3.4333333333333)"><rect width="6" height="6"/></g>
<g transform="translate(640,140) scale(3.4333333333333)"><rect width="6" height="6"/></g>
<g transform="translate(700,140) scale(3.4333333333333)"><rect width="6" height="6"/></g>
<g transform="translate(200,160) scale(3.4333333333333)"><rect width="6" height="6"/></g>
<g transform="translate(240,160) scale(3.4333333333333)"><rect width="6" height="6"/></g>
<g transform="translate(280,160) scale(3.4333333333333)"><rect width="6" height="6"/></g>
<g transform="translate(320,160) scale(3.4333333333333)"><rect width="6" height="6"/></g>
<g transform="translate(360,160) scale(3.4333333333333)"><rect width="6" height="6"/></g>
<g transform="translate(400,160) scale(3.4333333333333)"><rect width="6" height="6"/></g>
<g transform="translate(440,160) scale(3.4333333333333)"><rect width="6" height="6"/></g>
<g transform="translate(480,160) scale(3.4333333333333)"><rect width="6" height="6"/></g>
<g transform="translate(520,160) scale(3.4333333333333)"><rect width="6" height="6"/></g>
<g transform="translate(560,160) scale(3.4333333333333)"><rect width="6" height="6"/></g>
<g transform="translate(600,160) scale(3.4333333333333)"><rect width="6" height="6"/></g>
<g transform="translate(640,160) scale(3.4333333333333)"><rect width="6" height="6"/></g>
<g transform="translate(680,160) scale(3.4333333333333)"><rect width="6" height="6"/></g>
<g transform="translate(720,160) scale(3.4333333333333)"><rect width="6" height="6"/></g>
<g transform="translate(760,160) scale(3.4333333333333)"><rect width="6" height="6"/></g>
<g transform="translate(200,180) scale(3.4333333333333)"><rect width="6" height="6"/></g>
<g transform="translate(220,180) scale(3.4333333333333)"><rect width="6" height="6"/></g>
<g transform="translate(240,180) scale(3.4333333333333)"><rect width="6" height="6"/></g>
<g transform="translate(260,180) scale(3.4333333333333)"><rect width="6" height="6"/></g>
<g transform="translate(340,180) scale(3.4333333333333)"><rect width="6" height="6"/></g>
<g transform="translate(420,180) scale(3.4333333333333)"><rect width="6" height="6"/></g>
<g transform="translate(440,180) scale(3.4333333333333)"><rect width="6" height="6"/></g>
<g transform="translate(520,180) scale(3.4333333333333)"><rect width="6" height="6"/></g>
<g transform="translate(540,180) scale(3.4333333333333)"><rect width="6" height="6"/></g>
<g transform="translate(560,180) scale(3.4333333333333)"><rect width="6" height="6"/></g>
<g transform="translate(580,180) scale(3.4333333333333)"><rect width="6" height="6"/></g>
<g transform="translate(600,180) scale(3.4333333333333)"><rect width="6" height="6"/></g>
<g transform="translate(620,180) scale(3.4333333333333)"><rect width="6" height="6"/></g>
<g transform="translate(640,180) scale(3.4333333333333)"><rect width="6" height="6"/></g>
<g transform="translate(680,180) scale(3.4333333333333)"><rect width="6" height="6"/></g>
<g transform="translate(720,180) scale(3.4333333333333)"><rect width="6" height="6"/></g>
<g transform="translate(740,180) scale(3.4333333333333)"><rect width="6" height="6"/></g>
<g transform="translate(760,180) scale(3.4333333333333)"><rect width="6" height="6"/></g>
<g transform="translate(80,200) scale(3.4333333333333)"><rect width="6" height="6"/></g>
<g transform="translate(100,200) scale(3.4333333333333)"><rect width="6" height="6"/></g>
<g transform="translate(120,200) scale(3.4333333333333)"><rect width="6" height="6"/></g>
<g transform="translate(160,200) scale(3.4333333333333)"><rect width="6" height="6"/></g>
<g transform="translate(200,200) scale(3.4333333333333)"><rect width="6" height="6"/></g>
<g transform="translate(300,200) scale(3.4333333333333)"><rect width="6" height="6"/></g>
<g transform="translate(320,200) scale(3.4333333333333)"><rect width="6" height="6"/></g>
<g transform="translate(340,200) scale(3.4333333333333)"><rect width="6" height="6"/></g>
<g transform="translate(360,200) scale(3.4333333333333)"><rect width="6" height="6"/></g>
<g transform="translate(380,200) scale(3.4333333333333)"><rect width="6" height="6"/></g>
<g transform="translate(420,200) scale(3.4333333333333)"><rect width="6" height="6"/></g>
<g transform="translate(440,200) scale(3.4333333333333)"><rect width="6" height="6"/></g>
<g transform="translate(460,200) scale(3.4333333333333)"><rect width="6" height="6"/></g>
<g transform="translate(480,200) scale(3.4333333333333)"><rect width="6" height="6"/></g>
<g transform="translate(500,200) scale(3.4333333333333)"><rect width="6" height="6"/></g>
<g transform="translate(520,200) scale(3.4333333333333)"><rect width="6" height="6"/></g>
<g transform="translate(560,200) scale(3.4333333333333)"><rect width="6" height="6"/></g>
<g transform="translate(580,200) scale(3.4333333333333)"><rect width="6" height="6"/></g>
<g transform="translate(600,200) scale(3.4333333333333)"><rect width="6" height="6"/></g>
<g transform="translate(620,200) scale(3.4333333333333)"><rect width="6" height="6"/></g>
<g transform="translate(640,200) scale(3.4333333333333)"><rect width="6" height="6"/></g>
<g transform="translate(720,200) scale(3.4333333333333)"><rect width="6" height="6"/></g>
<g transform="translate(740,200) scale(3.4333333333333)"><rect width="6" height="6"/></g>
<g transform="translate(760,200) scale(3.4333333333333)"><rect width="6" height="6"/></g>
<g transform="translate(780,200) scale(3.4333333333333)"><rect width="6" height="6"/></g>
<g transform="translate(800,200) scale(3.4333333333333)"><rect width="6" height="6"/></g>
<g transform="translate(820,200) scale(3.4333333333333)"><rect width="6" height="6"/></g>
<g transform="translate(880,200) scale(3.4333333333333)"><rect width="6" height="6"/></g>
<g transform="translate(900,200) scale(3.4333333333333)"><rect width="6" height="6"/></g>
<g transform="translate(920,200) scale(3.4333333333333)"><rect width="6" height="6"/></g>
<g transform="translate(80,220) scale(3.4333333333333)"><rect width="6" height="6"/></g>
<g transform="translate(100,220) scale(3.4333333333333)"><rect width="6" height="6"/></g>
<g transform="translate(120,220) scale(3.4333333333333)"><rect width="6" height="6"/></g>
<g transform="translate(140,220) scale(3.4333333333333)"><rect width="6" height="6"/></g>
<g transform="translate(180,220) scale(3.4333333333333)"><rect width="6" height="6"/></g>
<g transform="translate(220,220) scale(3.4333333333333)"><rect width="6" height="6"/></g>
<g transform="translate(240,220) scale(3.4333333333333)"><rect width="6" height="6"/></g>
<g transform="translate(260,220) scale(3.4333333333333)"><rect width="6" height="6"/></g>
<g transform="translate(280,220) scale(3.4333333333333)"><rect width="6" height="6"/></g>
<g transform="translate(300,220) scale(3.4333333333333)"><rect width="6" height="6"/></g>
<g transform="translate(340,220) scale(3.4333333333333)"><rect width="6" height="6"/></g>
<g transform="translate(360,220) scale(3.4333333333333)"><rect width="6" height="6"/></g>
<g transform="translate(480,220) scale(3.4333333333333)"><rect width="6" height="6"/></g>
<g transform="translate(520,220) scale(3.4333333333333)"><rect width="6" height="6"/></g>
<g transform="translate(560,220) scale(3.4333333333333)"><rect width="6" height="6"/></g>
<g transform="translate(640,220) scale(3.4333333333333)"><rect width="6" height="6"/></g>
<g transform="translate(660,220) scale(3.4333333333333)"><rect width="6" height="6"/></g>
<g transform="translate(680,220) scale(3.4333333333333)"><rect width="6" height="6"/></g>
<g transform="translate(700,220) scale(3.4333333333333)"><rect width="6" height="6"/></g>
<g transform="translate(740,220) scale(3.4333333333333)"><rect width="6" height="6"/></g>
<g transform="translate(760,220) scale(3.4333333333333)"><rect width="6" height="6"/></g>
<g transform="translate(800,220) scale(3.4333333333333)"><rect width="6" height="6"/></g>
<g transform="translate(840,220) scale(3.4333333333333)"><rect width="6" height="6"/></g>
<g transform="translate(860,220) scale(3.4333333333333)"><rect width="6" height="6"/></g>
<g transform="translate(880,220) scale(3.4333333333333)"><rect width="6" height="6"/></g>
<g transform="translate(920,220) scale(3.4333333333333)"><rect width="6" height="6"/></g>
<g transform="translate(40,240) scale(3.4333333333333)"><rect width="6" height="6"/></g>
<g transform="translate(60,240) scale(3.4333333333333)"><rect width="6" height="6"/></g>
<g transform="translate(100,240) scale(3.4333333333333)"><rect width="6" height="6"/></g>
<g transform="translate(160,240) scale(3.4333333333333)"><rect width="6" height="6"/></g>
<g transform="translate(180,240) scale(3.4333333333333)"><rect width="6" height="6"/></g>
<g transform="translate(200,240) scale(3.4333333333333)"><rect width="6" height="6"/></g>
<g transform="translate(220,240) scale(3.4333333333333)"><rect width="6" height="6"/></g>
<g transform="translate(240,240) scale(3.4333333333333)"><rect width="6" height="6"/></g>
<g transform="translate(260,240) scale(3.4333333333333)"><rect width="6" height="6"/></g>
<g transform="translate(280,240) scale(3.4333333333333)"><rect width="6" height="6"/></g>
<g transform="translate(300,240) scale(3.4333333333333)"><rect width="6" height="6"/></g>
<g transform="translate(340,240) scale(3.4333333333333)"><rect width="6" height="6"/></g>
<g transform="translate(420,240) scale(3.4333333333333)"><rect width="6" height="6"/></g>
<g transform="translate(440,240) scale(3.4333333333333)"><rect width="6" height="6"/></g>
<g transform="translate(460,240) scale(3.4333333333333)"><rect width="6" height="6"/></g>
<g transform="translate(520,240) scale(3.4333333333333)"><rect width="6" height="6"/></g>
<g transform="translate(540,240) scale(3.4333333333333)"><rect width="6" height="6"/></g>
<g transform="translate(560,240) scale(3.4333333333333)"><rect width="6" height="6"/></g>
<g transform="translate(600,240) scale(3.4333333333333)"><rect width="6" height="6"/></g>
<g transform="translate(640,240) scale(3.4333333333333)"><rect width="6" height="6"/></g>
<g transform="translate(660,240) scale(3.4333333333333)"><rect width="6" height="6"/></g>
<g transform="translate(700,240) scale(3.4333333333333)"><rect width="6" height="6"/></g>
<g transform="translate(720,240) scale(3.4333333333333)"><rect width="6" height="6"/></g>
<g transform="translate(740,240) scale(3.4333333333333)"><rect width="6" height="6"/></g>
<g transform="translate(60,260) scale(3.4333333333333)"><rect width="6" height="6"/></g>
<g transform="translate(80,260) scale(3.4333333333333)"><rect width="6" height="6"/></g>
<g transform="translate(100,260) scale(3.4333333333333)"><rect width="6" height="6"/></g>
<g transform="translate(120,260) scale(3.4333333333333)"><rect width="6" height="6"/></g>
<g transform="translate(180,260) scale(3.4333333333333)"><rect width="6" height="6"/></g>
<g transform="translate(200,260) scale(3.4333333333333)"><rect width="6" height="6"/></g>
<g transform="translate(220,260) scale(3.4333333333333)"><rect width="6" height="6"/></g>
<g transform="translate(240,260) scale(3.4333333333333)"><rect width="6" height="6"/></g>
<g transform="translate(280,260) scale(3.4333333333333)"><rect width="6" height="6"/></g>
<g transform="translate(420,260) scale(3.4333333333333)"><rect width="6" height="6"/></g>
<g transform="translate(480,260) scale(3.4333333333333)"><rect width="6" height="6"/></g>
<g transform="translate(500,260) scale(3.4333333333333)"><rect width="6" height="6"/></g>
<g transform="translate(580,260) scale(3.4333333333333)"><rect width="6" height="6"/></g>
<g transform="translate(600,260) scale(3.4333333333333)"><rect width="6" height="6"/></g>
<g transform="translate(640,260) scale(3.4333333333333)"><rect width="6" height="6"/></g>
<g transform="translate(680,260) scale(3.4333333333333)"><rect width="6" height="6"/></g>
<g transform="translate(700,260) scale(3.4333333333333)"><rect width="6" height="6"/></g>
<g transform="translate(740,260) scale(3.4333333333333)"><rect width="6" height="6"/></g>
<g transform="translate(760,260) scale(3.4333333333333)"><rect width="6" height="6"/></g>
<g transform="translate(820,260) scale(3.4333333333333)"><rect width="6" height="6"/></g>
<g transform="translate(860,260) scale(3.4333333333333)"><rect width="6" height="6"/></g>
<g transform="translate(900,260) scale(3.4333333333333)"><rect width="6" height="6"/></g>
<g transform="translate(920,260) scale(3.4333333333333)"><rect width="6" height="6"/></g>
<g transform="translate(60,280) scale(3.4333333333333)"><rect width="6" height="6"/></g>
<g transform="translate(80,280) scale(3.4333333333333)"><rect width="6" height="6"/></g>
<g transform="translate(100,280) scale(3.4333333333333)"><rect width="6" height="6"/></g>
<g transform="translate(160,280) scale(3.4333333333333)"><rect width="6" height="6"/></g>
<g transform="translate(180,280) scale(3.4333333333333)"><rect width="6" height="6"/></g>
<g transform="translate(200,280) scale(3.4333333333333)"><rect width="6" height="6"/></g>
<g transform="translate(280,280) scale(3.4333333333333)"><rect width="6" height="6"/></g>
<g transform="translate(420,280) scale(3.4333333333333)"><rect width="6" height="6"/></g>
<g transform="translate(480,280) scale(3.4333333333333)"><rect width="6" height="6"/></g>
<g transform="translate(520,280) scale(3.4333333333333)"><rect width="6" height="6"/></g>
<g transform="translate(540,280) scale(3.4333333333333)"><rect width="6" height="6"/></g>
<g transform="translate(580,280) scale(3.4333333333333)"><rect width="6" height="6"/></g>
<g transform="translate(600,280) scale(3.4333333333333)"><rect width="6" height="6"/></g>
<g transform="translate(720,280) scale(3.4333333333333)"><rect width="6" height="6"/></g>
<g transform="translate(740,280) scale(3.4333333333333)"><rect width="6" height="6"/></g>
<g transform="translate(840,280) scale(3.4333333333333)"><rect width="6" height="6"/></g>
<g transform="translate(900,280) scale(3.4333333333333)"><rect width="6" height="6"/></g>
<g transform="translate(60,300) scale(3.4333333333333)"><rect width="6" height="6"/></g>
<g transform="translate(80,300) scale(3.4333333333333)"><rect width="6" height="6"/></g>
<g transform="translate(100,300) scale(3.4333333333333)"><rect width="6" height="6"/></g>
<g transform="translate(140,300) scale(3.4333333333333)"><rect width="6" height="6"/></g>
<g transform="translate(180,300) scale(3.4333333333333)"><rect width="6" height="6"/></g>
<g transform="translate(280,300) scale(3.4333333333333)"><rect width="6" height="6"/></g>
<g transform="translate(300,300) scale(3.4333333333333)"><rect width="6" height="6"/></g>
<g transform="translate(340,300) scale(3.4333333333333)"><rect width="6" height="6"/></g>
<g transform="translate(380,300) scale(3.4333333333333)"><rect width="6" height="6"/></g>
<g transform="translate(420,300) scale(3.4333333333333)"><rect width="6" height="6"/></g>
<g transform="translate(480,300) scale(3.4333333333333)"><rect width="6" height="6"/></g>
<g transform="translate(500,300) scale(3.4333333333333)"><rect width="6" height="6"/></g>
<g transform="translate(600,300) scale(3.4333333333333)"><rect width="6" height="6"/></g>
<g transform="translate(620,300) scale(3.4333333333333)"><rect width="6" height="6"/></g>
<g transform="translate(680,300) scale(3.4333333333333)"><rect width="6" height="6"/></g>
<g transform="translate(700,300) scale(3.4333333333333)"><rect width="6" height="6"/></g>
<g transform="translate(740,300) scale(3.4333333333333)"><rect width="6" height="6"/></g>
<g transform="translate(780,300) scale(3.4333333333333)"><rect width="6" height="6"/></g>
<g transform="translate(820,300) scale(3.4333333333333)"><rect width="6" height="6"/></g>
<g transform="translate(840,300) scale(3.4333333333333)"><rect width="6" height="6"/></g>
<g transform="translate(40,320) scale(3.4333333333333)"><rect width="6" height="6"/></g>
<g transform="translate(60,320) scale(3.4333333333333)"><rect width="6" height="6"/></g>
<g transform="translate(80,320) scale(3.4333333333333)"><rect width="6" height="6"/></g>
<g transform="translate(100,320) scale(3.4333333333333)"><rect width="6" height="6"/></g>
<g transform="translate(140,320) scale(3.4333333333333)"><rect width="6" height="6"/></g>
<g transform="translate(160,320) scale(3.4333333333333)"><rect width="6" height="6"/></g>
<g transform="translate(180,320) scale(3.4333333333333)"><rect width="6" height="6"/></g>
<g transform="translate(240,320) scale(3.4333333333333)"><rect width="6" height="6"/></g>
<g transform="translate(300,320) scale(3.4333333333333)"><rect width="6" height="6"/></g>
<g transform="translate(380,320) scale(3.4333333333333)"><rect width="6" height="6"/></g>
<g transform="translate(420,320) scale(3.4333333333333)"><rect width="6" height="6"/></g>
<g transform="translate(440,320) scale(3.4333333333333)"><rect width="6" height="6"/></g>
<g transform="translate(480,320) scale(3.4333333333333)"><rect width="6" height="6"/></g>
<g transform="translate(500,320) scale(3.4333333333333)"><rect width="6" height="6"/></g>
<g transform="translate(560,320) scale(3.4333333333333)"><rect width="6" height="6"/></g>
<g transform="translate(600,320) scale(3.4333333333333)"><rect width="6" height="6"/></g>
<g transform="translate(620,320) scale(3.4333333333333)"><rect width="6" height="6"/></g>
<g transform="translate(660,320) scale(3.4333333333333)"><rect width="6" height="6"/></g>
<g transform="translate(700,320) scale(3.4333333333333)"><rect width="6" height="6"/></g>
<g transform="translate(780,320) scale(3.4333333333333)"><rect width="6" height="6"/></g>
<g transform="translate(800,320) scale(3.4333333333333)"><rect width="6" height="6"/></g>
<g transform="translate(880,320) scale(3.4333333333333)"><rect width="6" height="6"/></g>
<g transform="translate(920,320) scale(3.4333333333333)"><rect width="6" height="6"/></g>
<g transform="translate(60,340) scale(3.4333333333333)"><rect width="6" height="6"/></g>
<g transform="translate(100,340) scale(3.4333333333333)"><rect width="6" height="6"/></g>
<g transform="translate(200,340) scale(3.4333333333333)"><rect width="6" height="6"/></g>
<g transform="translate(220,340) scale(3.4333333333333)"><rect width="6" height="6"/></g>
<g transform="translate(260,340) scale(3.4333333333333)"><rect width="6" height="6"/></g>
<g transform="translate(360,340) scale(3.4333333333333)"><rect width="6" height="6"/></g>
<g transform="translate(380,340) scale(3.4333333333333)"><rect width="6" height="6"/></g>
<g transform="translate(440,340) scale(3.4333333333333)"><rect width="6" height="6"/></g>
<g transform="translate(460,340) scale(3.4333333333333)"><rect width="6" height="6"/></g>
<g transform="translate(480,340) scale(3.4333333333333)"><rect width="6" height="6"/></g>
<g transform="translate(500,340) scale(3.4333333333333)"><rect width="6" height="6"/></g>
<g transform="translate(520,340) scale(3.4333333333333)"><rect width="6" height="6"/></g>
<g transform="translate(540,340) scale(3.4333333333333)"><rect width="6" height="6"/></g>
<g transform="translate(560,340) scale(3.4333333333333)"><rect width="6" height="6"/></g>
<g transform="translate(580,340) scale(3.4333333333333)"><rect width="6" height="6"/></g>
<g transform="translate(600,340) scale(3.4333333333333)"><rect width="6" height="6"/></g>
<g transform="translate(620,340) scale(3.4333333333333)"><rect width="6" height="6"/></g>
<g transform="translate(660,340) scale(3.4333333333333)"><rect width="6" height="6"/></g>
<g transform="translate(680,340) scale(3.4333333333333)"><rect width="6" height="6"/></g>
<g transform="translate(760,340) scale(3.4333333333333)"><rect width="6" height="6"/></g>
<g transform="translate(820,340) scale(3.4333333333333)"><rect width="6" height="6"/></g>
<g transform="translate(840,340) scale(3.4333333333333)"><rect width="6" height="6"/></g>
<g transform="translate(860,340) scale(3.4333333333333)"><rect width="6" height="6"/></g>
<g transform="translate(880,340) scale(3.4333333333333)"><rect width="6" height="6"/></g>
<g transform="translate(920,340) scale(3.4333333333333)"><rect width="6" height="6"/></g>
<g transform="translate(40,360) scale(3.4333333333333)"><rect width="6" height="6"/></g>
<g transform="translate(60,360) scale(3.4333333333333)"><rect width="6" height="6"/></g>
<g transform="translate(80,360) scale(3.4333333333333)"><rect width="6" height="6"/></g>
<g transform="translate(120,360) scale(3.4333333333333)"><rect width="6" height="6"/></g>
<g transform="translate(160,360) scale(3.4333333333333)"><rect width="6" height="6"/></g>
<g transform="translate(200,360) scale(3.4333333333333)"><rect width="6" height="6"/></g>
<g transform="translate(260,360) scale(3.4333333333333)"><rect width="6" height="6"/></g>
<g transform="translate(280,360) scale(3.4333333333333)"><rect width="6" height="6"/></g>
<g transform="translate(320,360) scale(3.4333333333333)"><rect width="6" height="6"/></g>
<g transform="translate(460,360) scale(3.4333333333333)"><rect width="6" height="6"/></g>
<g transform="translate(480,360) scale(3.4333333333333)"><rect width="6" height="6"/></g>
<g transform="translate(500,360) scale(3.4333333333333)"><rect width="6" height="6"/></g>
<g transform="translate(520,360) scale(3.4333333333333)"><rect width="6" height="6"/></g>
<g transform="translate(580,360) scale(3.4333333333333)"><rect width="6" height="6"/></g>
<g transform="translate(660,360) scale(3.4333333333333)"><rect width="6" height="6"/></g>
<g transform="translate(700,360) scale(3.4333333333333)"><rect width="6" height="6"/></g>
<g transform="translate(760,360) scale(3.4333333333333)"><rect width="6" height="6"/></g>
<g transform="translate(800,360) scale(3.4333333333333)"><rect width="6" height="6"/></g>
<g transform="translate(840,360) scale(3.4333333333333)"><rect width="6" height="6"/></g>
<g transform="translate(860,360) scale(3.4333333333333)"><rect width="6" height="6"/></g>
<g transform="translate(900,360) scale(3.4333333333333)"><rect width="6" height="6"/></g>
<g transform="translate(80,380) scale(3.4333333333333)"><rect width="6" height="6"/></g>
<g transform="translate(100,380) scale(3.4333333333333)"><rect width="6" height="6"/></g>
<g transform="translate(120,380) scale(3.4333333333333)"><rect width="6" height="6"/></g>
<g transform="translate(200,380) scale(3.4333333333333)"><rect width="6" height="6"/></g>
<g transform="translate(220,380) scale(3.4333333333333)"><rect width="6" height="6"/></g>
<g transform="translate(320,380) scale(3.4333333333333)"><rect width="6" height="6"/></g>
<g transform="translate(360,380) scale(3.4333333333333)"><rect width="6" height="6"/></g>
<g transform="translate(380,380) scale(3.4333333333333)"><rect width="6" height="6"/></g>
<g transform="translate(400,380) scale(3.4333333333333)"><rect width="6" height="6"/></g>
<g transform="translate(420,380) scale(3.4333333333333)"><rect width="6" height="6"/></g>
<g transform="translate(440,380) scale(3.4333333333333)"><rect width="6" height="6"/></g>
<g transform="translate(480,380) scale(3.4333333333333)"><rect width="6" height="6"/></g>
<g transform="translate(500,380) scale(3.4333333333333)"><rect width="6" height="6"/></g>
<g transform="translate(540,380) scale(3.4333333333333)"><rect width="6" height="6"/></g>
<g transform="translate(560,380) scale(3.4333333333333)"><rect width="6" height="6"/></g>
<g transform="translate(580,380) scale(3.4333333333333)"><rect width="6" height="6"/></g>
<g transform="translate(620,380) scale(3.4333333333333)"><rect width="6" height="6"/></g>
<g transform="translate(680,380) scale(3.4333333333333)"><rect width="6" height="6"/></g>
<g transform="translate(760,380) scale(3.4333333333333)"><rect width="6" height="6"/></g>
<g transform="translate(800,380) scale(3.4333333333333)"><rect width="6" height="6"/></g>
<g transform="translate(820,380) scale(3.4333333333333)"><rect width="6" height="6"/></g>
<g transform="translate(840,380) scale(3.4333333333333)"><rect width="6" height="6"/></g>
<g transform="translate(860,380) scale(3.4333333333333)"><rect width="6" height="6"/></g>
<g transform="translate(920,380) scale(3.4333333333333)"><rect width="6" height="6"/></g>
<g transform="translate(80,400) scale(3.4333333333333)"><rect width="6" height="6"/></g>
<g transform="translate(120,400) scale(3.4333333333333)"><rect width="6" height="6"/></g>
<g transform="translate(160,400) scale(3.4333333333333)"><rect width="6" height="6"/></g>
<g transform="translate(180,400) scale(3.4333333333333)"><rect width="6" height="6"/></g>
<g transform="translate(200,400) scale(3.4333333333333)"><rect width="6" height="6"/></g>
<g transform="translate(240,400) scale(3.4333333333333)"><rect width="6" height="6"/></g>
<g transform="translate(260,400) scale(3.4333333333333)"><rect width="6" height="6"/></g>
<g transform="translate(300,400) scale(3.4333333333333)"><rect width="6" height="6"/></g>
<g transform="translate(340,400) scale(3.4333333333333)"><rect width="6" height="6"/></g>
<g transform="translate(360,400) scale(3.4333333333333)"><rect width="6" height="6"/></g>
<g transform="translate(440,400) scale(3.4333333333333)"><rect width="6" height="6"/></g>
<g transform="translate(460,400) scale(3.4333333333333)"><rect width="6" height="6"/></g>
<g transform="translate(520,400) scale(3.4333333333333)"><rect width="6" height="6"/></g>
<g transform="translate(560,400) scale(3.4333333333333)"><rect width="6" height="6"/></g>
<g transform="translate(640,400) scale(3.4333333333333)"><rect width="6" height="6"/></g>
<g transform="translate(660,400) scale(3.4333333333333)"><rect width="6" height="6"/></g>
<g transform="translate(740,400) scale(3.4333333333333)"><rect width="6" height="6"/></g>
<g transform="translate(800,400) scale(3.4333333333333)"><rect width="6" height="6"/></g>
<g transform="translate(820,400) scale(3.4333333333333)"><rect width="6" height="6"/></g>
<g transform="translate(900,400) scale(3.4333333333333)"><rect width="6" height="6"/></g>
<g transform="translate(60,420) scale(3.4333333333333)"><rect width="6" height="6"/></g>
<g transform="translate(100,420) scale(3.4333333333333)"><rect width="6" height="6"/></g>
<g transform="translate(200,420) scale(3.4333333333333)"><rect width="6" height="6"/></g>
<g transform="translate(240,420) scale(3.4333333333333)"><rect width="6" height="6"/></g>
<g transform="translate(260,420) scale(3.4333333333333)"><rect width="6" height="6"/></g>
<g transform="translate(280,420) scale(3.4333333333333)"><rect width="6" height="6"/></g>
<g transform="translate(300,420) scale(3.4333333333333)"><rect width="6" height="6"/></g>
<g transform="translate(320,420) scale(3.4333333333333)"><rect width="6" height="6"/></g>
<g transform="translate(360,420) scale(3.4333333333333)"><rect width="6" height="6"/></g>
<g transform="translate(400,420) scale(3.4333333333333)"><rect width="6" height="6"/></g>
<g transform="translate(500,420) scale(3.4333333333333)"><rect width="6" height="6"/></g>
<g transform="translate(520,420) scale(3.4333333333333)"><rect width="6" height="6"/></g>
<g transform="translate(580,420) scale(3.4333333333333)"><rect width="6" height="6"/></g>
<g transform="translate(640,420) scale(3.4333333333333)"><rect width="6" height="6"/></g>
<g transform="translate(660,420) scale(3.4333333333333)"><rect width="6" height="6"/></g>
<g transform="translate(680,420) scale(3.4333333333333)"><rect width="6" height="6"/></g>
<g transform="translate(760,420) scale(3.4333333333333)"><rect width="6" height="6"/></g>
<g transform="translate(780,420) scale(3.4333333333333)"><rect width="6" height="6"/></g>
<g transform="translate(820,420) scale(3.4333333333333)"><rect width="6" height="6"/></g>
<g transform="translate(860,420) scale(3.4333333333333)"><rect width="6" height="6"/></g>
<g transform="translate(880,420) scale(3.4333333333333)"><rect width="6" height="6"/></g>
<g transform="translate(900,420) scale(3.4333333333333)"><rect width="6" height="6"/></g>
<g transform="translate(920,420) scale(3.4333333333333)"><rect width="6" height="6"/></g>
<g transform="translate(40,440) scale(3.4333333333333)"><rect width="6" height="6"/></g>
<g transform="translate(60,440) scale(3.4333333333333)"><rect width="6" height="6"/></g>
<g transform="translate(80,440) scale(3.4333333333333)"><rect width="6" height="6"/></g>
<g transform="translate(120,440) scale(3.4333333333333)"><rect width="6" height="6"/></g>
<g transform="translate(140,440) scale(3.4333333333333)"><rect width="6" height="6"/></g>
<g transform="translate(160,440) scale(3.4333333333333)"><rect width="6" height="6"/></g>
<g transform="translate(180,440) scale(3.4333333333333)"><rect width="6" height="6"/></g>
<g transform="translate(200,440) scale(3.4333333333333)"><rect width="6" height="6"/></g>
<g transform="translate(260,440) scale(3.4333333333333)"><rect width="6" height="6"/></g>
<g transform="translate(320,440) scale(3.4333333333333)"><rect width="6" height="6"/></g>
<g transform="translate(340,440) scale(3.4333333333333)"><rect width="6" height="6"/></g>
<g transform="translate(380,440) scale(3.4333333333333)"><rect width="6" height="6"/></g>
<g transform="translate(400,440) scale(3.4333333333333)"><rect width="6" height="6"/></g>
<g transform="translate(420,440) scale(3.4333333333333)"><rect width="6" height="6"/></g>
<g transform="translate(440,440) scale(3.4333333333333)"><rect width="6" height="6"/></g>
<g transform="translate(460,440) scale(3.4333333333333)"><rect width="6" height="6"/></g>
<g transform="translate(480,440) scale(3.4333333333333)"><rect width="6" height="6"/></g>
<g transform="translate(500,440) scale(3.4333333333333)"><rect width="6" height="6"/></g>
<g transform="translate(520,440) scale(3.4333333333333)"><rect width="6" height="6"/></g>
<g transform="translate(540,440) scale(3.4333333333333)"><rect width="6" height="6"/></g>
<g transform="translate(560,440) scale(3.4333333333333)"><rect width="6" height="6"/></g>
<g transform="translate(600,440) scale(3.4333333333333)"><rect width="6" height="6"/></g>
<g transform="translate(620,440) scale(3.4333333333333)"><rect width="6" height="6"/></g>
<g transform="translate(640,440) scale(3.4333333333333)"><rect width="6" height="6"/></g>
<g transform="translate(660,440) scale(3.4333333333333)"><rect width="6" height="6"/></g>
<g transform="translate(700,440) scale(3.4333333333333)"><rect width="6" height="6"/></g>
<g transform="translate(720,440) scale(3.4333333333333)"><rect width="6" height="6"/></g>
<g transform="translate(760,440) scale(3.4333333333333)"><rect width="6" height="6"/></g>
<g transform="translate(780,440) scale(3.4333333333333)"><rect width="6" height="6"/></g>
<g transform="translate(800,440) scale(3.4333333333333)"><rect width="6" height="6"/></g>
<g transform="translate(820,440) scale(3.4333333333333)"><rect width="6" height="6"/></g>
<g transform="translate(840,440) scale(3.4333333333333)"><rect width="6" height="6"/></g>
<g transform="translate(900,440) scale(3.4333333333333)"><rect width="6" height="6"/></g>
<g transform="translate(40,460) scale(3.4333333333333)"><rect width="6" height="6"/></g>
<g transform="translate(120,460) scale(3.4333333333333)"><rect width="6" height="6"/></g>
<g transform="translate(200,460) scale(3.4333333333333)"><rect width="6" height="6"/></g>
<g transform="translate(360,460) scale(3.4333333333333)"><rect width="6" height="6"/></g>
<g transform="translate(380,460) scale(3.4333333333333)"><rect width="6" height="6"/></g>
<g transform="translate(400,460) scale(3.4333333333333)"><rect width="6" height="6"/></g>
<g transform="translate(420,460) scale(3.4333333333333)"><rect width="6" height="6"/></g>
<g transform="translate(440,460) scale(3.4333333333333)"><rect width="6" height="6"/></g>
<g transform="translate(520,460) scale(3.4333333333333)"><rect width="6" height="6"/></g>
<g transform="translate(540,460) scale(3.4333333333333)"><rect width="6" height="6"/></g>
<g transform="translate(560,460) scale(3.4333333333333)"><rect width="6" height="6"/></g>
<g transform="translate(600,460) scale(3.4333333333333)"><rect width="6" height="6"/></g>
<g transform="translate(640,460) scale(3.4333333333333)"><rect width="6" height="6"/></g>
<g transform="translate(680,460) scale(3.4333333333333)"><rect width="6" height="6"/></g>
<g transform="translate(700,460) scale(3.4333333333333)"><rect width="6" height="6"/></g>
<g transform="translate(720,460) scale(3.4333333333333)"><rect width="6" height="6"/></g>
<g transform="translate(740,460) scale(3.4333333333333)"><rect width="6" height="6"/></g>
<g transform="translate(760,460) scale(3.4333333333333)"><rect width="6" height="6"/></g>
<g transform="translate(840,460) scale(3.4333333333333)"><rect width="6" height="6"/></g>
<g transform="translate(860,460) scale(3.4333333333333)"><rect width="6" height="6"/></g>
<g transform="translate(880,460) scale(3.4333333333333)"><rect width="6" height="6"/></g>
<g transform="translate(920,460) scale(3.4333333333333)"><rect width="6" height="6"/></g>
<g transform="translate(80,480) scale(3.4333333333333)"><rect width="6" height="6"/></g>
<g transform="translate(120,480) scale(3.4333333333333)"><rect width="6" height="6"/></g>
<g transform="translate(160,480) scale(3.4333333333333)"><rect width="6" height="6"/></g>
<g transform="translate(200,480) scale(3.4333333333333)"><rect width="6" height="6"/></g>
<g transform="translate(220,480) scale(3.4333333333333)"><rect width="6" height="6"/></g>
<g transform="translate(260,480) scale(3.4333333333333)"><rect width="6" height="6"/></g>
<g transform="translate(280,480) scale(3.4333333333333)"><rect width="6" height="6"/></g>
<g transform="translate(360,480) scale(3.4333333333333)"><rect width="6" height="6"/></g>
<g transform="translate(400,480) scale(3.4333333333333)"><rect width="6" height="6"/></g>
<g transform="translate(440,480) scale(3.4333333333333)"><rect width="6" height="6"/></g>
<g transform="translate(480,480) scale(3.4333333333333)"><rect width="6" height="6"/></g>
<g transform="translate(520,480) scale(3.4333333333333)"><rect width="6" height="6"/></g>
<g transform="translate(540,480) scale(3.4333333333333)"><rect width="6" height="6"/></g>
<g transform="translate(580,480) scale(3.4333333333333)"><rect width="6" height="6"/></g>
<g transform="translate(600,480) scale(3.4333333333333)"><rect width="6" height="6"/></g>
<g transform="translate(620,480) scale(3.4333333333333)"><rect width="6" height="6"/></g>
<g transform="translate(640,480) scale(3.4333333333333)"><rect width="6" height="6"/></g>
<g transform="translate(720,480) scale(3.4333333333333)"><rect width="6" height="6"/></g>
<g transform="translate(760,480) scale(3.4333333333333)"><rect width="6" height="6"/></g>
<g transform="translate(800,480) scale(3.4333333333333)"><rect width="6" height="6"/></g>
<g transform="translate(840,480) scale(3.4333333333333)"><rect width="6" height="6"/></g>
<g transform="translate(860,480) scale(3.4333333333333)"><rect width="6" height="6"/></g>
<g transform="translate(900,480) scale(3.4333333333333)"><rect width="6" height="6"/></g>
<g transform="translate(100,500) scale(3.4333333333333)"><rect width="6" height="6"/></g>
<g transform="translate(120,500) scale(3.4333333333333)"><rect width="6" height="6"/></g>
<g transform="translate(200,500) scale(3.4333333333333)"><rect width="6" height="6"/></g>
<g transform="translate(280,500) scale(3.4333333333333)"><rect width="6" height="6"/></g>
<g transform="translate(300,500) scale(3.4333333333333)"><rect width="6" height="6"/></g>
<g transform="translate(320,500) scale(3.4333333333333)"><rect width="6" height="6"/></g>
<g transform="translate(340,500) scale(3.4333333333333)"><rect width="6" height="6"/></g>
<g transform="translate(420,500) scale(3.4333333333333)"><rect width="6" height="6"/></g>
<g transform="translate(440,500) scale(3.4333333333333)"><rect width="6" height="6"/></g>
<g transform="translate(520,500) scale(3.4333333333333)"><rect width="6" height="6"/></g>
<g transform="translate(540,500) scale(3.4333333333333)"><rect width="6" height="6"/></g>
<g transform="translate(560,500) scale(3.4333333333333)"><rect width="6" height="6"/></g>
<g transform="translate(580,500) scale(3.4333333333333)"><rect width="6" height="6"/></g>
<g transform="translate(600,500) scale(3.4333333333333)"><rect width="6" height="6"/></g>
<g transform="translate(620,500) scale(3.4333333333333)"><rect width="6" height="6"/></g>
<g transform="translate(760,500) scale(3.4333333333333)"><rect width="6" height="6"/></g>
<g transform="translate(840,500) scale(3.4333333333333)"><rect width="6" height="6"/></g>
<g transform="translate(860,500) scale(3.4333333333333)"><rect width="6" height="6"/></g>
<g transform="translate(880,500) scale(3.4333333333333)"><rect width="6" height="6"/></g>
<g transform="translate(100,520) scale(3.4333333333333)"><rect width="6" height="6"/></g>
<g transform="translate(120,520) scale(3.4333333333333)"><rect width="6" height="6"/></g>
<g transform="translate(140,520) scale(3.4333333333333)"><rect width="6" height="6"/></g>
<g transform="translate(160,520) scale(3.4333333333333)"><rect width="6" height="6"/></g>
<g transform="translate(180,520) scale(3.4333333333333)"><rect width="6" height="6"/></g>
<g transform="translate(200,520) scale(3.4333333333333)"><rect width="6" height="6"/></g>
<g transform="translate(240,520) scale(3.4333333333333)"><rect width="6" height="6"/></g>
<g transform="translate(280,520) scale(3.4333333333333)"><rect width="6" height="6"/></g>
<g transform="translate(380,520) scale(3.4333333333333)"><rect width="6" height="6"/></g>
<g transform="translate(420,520) scale(3.4333333333333)"><rect width="6" height="6"/></g>
<g transform="translate(440,520) scale(3.4333333333333)"><rect width="6" height="6"/></g>
<g transform="translate(460,520) scale(3.4333333333333)"><rect width="6" height="6"/></g>
<g transform="translate(480,520) scale(3.4333333333333)"><rect width="6" height="6"/></g>
<g transform="translate(500,520) scale(3.4333333333333)"><rect width="6" height="6"/></g>
<g transform="translate(520,520) scale(3.4333333333333)"><rect width="6" height="6"/></g>
<g transform="translate(580,520) scale(3.4333333333333)"><rect width="6" height="6"/></g>
<g transform="translate(600,520) scale(3.4333333333333)"><rect width="6" height="6"/></g>
<g transform="translate(620,520) scale(3.4333333333333)"><rect width="6" height="6"/></g>
<g transform="translate(660,520) scale(3.4333333333333)"><rect width="6" height="6"/></g>
<g transform="translate(680,520) scale(3.4333333333333)"><rect width="6" height="6"/></g>
<g transform="translate(700,520) scale(3.4333333333333)"><rect width="6" height="6"/></g>
<g transform="translate(720,520) scale(3.4333333333333)"><rect width="6" height="6"/></g>
<g transform="translate(760,520) scale(3.4333333333333)"><rect width="6" height="6"/></g>
<g transform="translate(780,520) scale(3.4333333333333)"><rect width="6" height="6"/></g>
<g transform="translate(800,520) scale(3.4333333333333)"><rect width="6" height="6"/></g>
<g transform="translate(820,520) scale(3.4333333333333)"><rect width="6" height="6"/></g>
<g transform="translate(840,520) scale(3.4333333333333)"><rect width="6" height="6"/></g>
<g transform="translate(860,520) scale(3.4333333333333)"><rect width="6" height="6"/></g>
<g transform="translate(880,520) scale(3.4333333333333)"><rect width="6" height="6"/></g>
<g transform="translate(60,540) scale(3.4333333333333)"><rect width="6" height="6"/></g>
<g transform="translate(80,540) scale(3.4333333333333)"><rect width="6" height="6"/></g>
<g transform="translate(100,540) scale(3.4333333333333)"><rect width="6" height="6"/></g>
<g transform="translate(180,540) scale(3.4333333333333)"><rect width="6" height="6"/></g>
<g transform="translate(220,540) scale(3.4333333333333)"><rect width="6" height="6"/></g>
<g transform="translate(260,540) scale(3.4333333333333)"><rect width="6" height="6"/></g>
<g transform="translate(300,540) scale(3.4333333333333)"><rect width="6" height="6"/></g>
<g transform="translate(340,540) scale(3.4333333333333)"><rect width="6" height="6"/></g>
<g transform="translate(380,540) scale(3.4333333333333)"><rect width="6" height="6"/></g>
<g transform="translate(400,540) scale(3.4333333333333)"><rect width="6" height="6"/></g>
<g transform="translate(420,540) scale(3.4333333333333)"><rect width="6" height="6"/></g>
<g transform="translate(480,540) scale(3.4333333333333)"><rect width="6" height="6"/></g>
<g transform="translate(500,540) scale(3.4333333333333)"><rect width="6" height="6"/></g>
<g transform="translate(540,540) scale(3.4333333333333)"><rect width="6" height="6"/></g>
<g transform="translate(600,540) scale(3.4333333333333)"><rect width="6" height="6"/></g>
<g transform="translate(640,540) scale(3.4333333333333)"><rect width="6" height="6"/></g>
<g transform="translate(680,540) scale(3.4333333333333)"><rect width="6" height="6"/></g>
<g transform="translate(720,540) scale(3.4333333333333)"><rect width="6" height="6"/></g>
<g transform="translate(740,540) scale(3.4333333333333)"><rect width="6" height="6"/></g>
<g transform="translate(760,540) scale(3.4333333333333)"><rect width="6" height="6"/></g>
<g transform="translate(800,540) scale(3.4333333333333)"><rect width="6" height="6"/></g>
<g transform="translate(860,540) scale(3.4333333333333)"><rect width="6" height="6"/></g>
<g transform="translate(880,540) scale(3.4333333333333)"><rect width="6" height="6"/></g>
<g transform="translate(900,540) scale(3.4333333333333)"><rect width="6" height="6"/></g>
<g transform="translate(40,560) scale(3.4333333333333)"><rect width="6" height="6"/></g>
<g transform="translate(140,560) scale(3.4333333333333)"><rect width="6" height="6"/></g>
<g transform="translate(160,560) scale(3.4333333333333)"><rect width="6" height="6"/></g>
<g transform="translate(180,560) scale(3.4333333333333)"><rect width="6" height="6"/></g>
<g transform="translate(200,560) scale(3.4333333333333)"><rect width="6" height="6"/></g>
<g transform="translate(220,560) scale(3.4333333333333)"><rect width="6" height="6"/></g>
<g transform="translate(240,560) scale(3.4333333333333)"><rect width="6" height="6"/></g>
<g transform="translate(260,560) scale(3.4333333333333)"><rect width="6" height="6"/></g>
<g transform="translate(320,560) scale(3.4333333333333)"><rect width="6" height="6"/></g>
<g transform="translate(420,560) scale(3.4333333333333)"><rect width="6" height="6"/></g>
<g transform="translate(440,560) scale(3.4333333333333)"><rect width="6" height="6"/></g>
<g transform="translate(480,560) scale(3.4333333333333)"><rect width="6" height="6"/></g>
<g transform="translate(500,560) scale(3.4333333333333)"><rect width="6" height="6"/></g>
<g transform="translate(520,560) scale(3.4333333333333)"><rect width="6" height="6"/></g>
<g transform="translate(560,560) scale(3.4333333333333)"><rect width="6" height="6"/></g>
<g transform="translate(640,560) scale(3.4333333333333)"><rect width="6" height="6"/></g>
<g transform="translate(660,560) scale(3.4333333333333)"><rect width="6" height="6"/></g>
<g transform="translate(680,560) scale(3.4333333333333)"><rect width="6" height="6"/></g>
<g transform="translate(740,560) scale(3.4333333333333)"><rect width="6" height="6"/></g>
<g transform="translate(760,560) scale(3.4333333333333)"><rect width="6" height="6"/></g>
<g transform="translate(800,560) scale(3.4333333333333)"><rect width="6" height="6"/></g>
<g transform="translate(820,560) scale(3.4333333333333)"><rect width="6" height="6"/></g>
<g transform="translate(860,560) scale(3.4333333333333)"><rect width="6" height="6"/></g>
<g transform="translate(920,560) scale(3.4333333333333)"><rect width="6" height="6"/></g>
<g transform="translate(40,580) scale(3.4333333333333)"><rect width="6" height="6"/></g>
<g transform="translate(140,580) scale(3.4333333333333)"><rect width="6" height="6"/></g>
<g transform="translate(200,580) scale(3.4333333333333)"><rect width="6" height="6"/></g>
<g transform="translate(260,580) scale(3.4333333333333)"><rect width="6" height="6"/></g>
<g transform="translate(300,580) scale(3.4333333333333)"><rect width="6" height="6"/></g>
<g transform="translate(360,580) scale(3.4333333333333)"><rect width="6" height="6"/></g>
<g transform="translate(380,580) scale(3.4333333333333)"><rect width="6" height="6"/></g>
<g transform="translate(440,580) scale(3.4333333333333)"><rect width="6" height="6"/></g>
<g transform="translate(460,580) scale(3.4333333333333)"><rect width="6" height="6"/></g>
<g transform="translate(500,580) scale(3.4333333333333)"><rect width="6" height="6"/></g>
<g transform="translate(560,580) scale(3.4333333333333)"><rect width="6" height="6"/></g>
<g transform="translate(600,580) scale(3.4333333333333)"><rect width="6" height="6"/></g>
<g transform="translate(620,580) scale(3.4333333333333)"><rect width="6" height="6"/></g>
<g transform="translate(640,580) scale(3.4333333333333)"><rect width="6" height="6"/></g>
<g transform="translate(660,580) scale(3.4333333333333)"><rect width="6" height="6"/></g>
<g transform="translate(720,580) scale(3.4333333333333)"><rect width="6" height="6"/></g>
<g transform="translate(760,580) scale(3.4333333333333)"><rect width="6" height="6"/></g>
<g transform="translate(780,580) scale(3.4333333333333)"><rect width="6" height="6"/></g>
<g transform="translate(860,580) scale(3.4333333333333)"><rect width="6" height="6"/></g>
<g transform="translate(880,580) scale(3.4333333333333)"><rect width="6" height="6"/></g>
<g transform="translate(920,580) scale(3.4333333333333)"><rect width="6" height="6"/></g>
<g transform="translate(40,600) scale(3.4333333333333)"><rect width="6" height="6"/></g>
<g transform="translate(60,600) scale(3.4333333333333)"><rect width="6" height="6"/></g>
<g transform="translate(120,600) scale(3.4333333333333)"><rect width="6" height="6"/></g>
<g transform="translate(140,600) scale(3.4333333333333)"><rect width="6" height="6"/></g>
<g transform="translate(160,600) scale(3.4333333333333)"><rect width="6" height="6"/></g>
<g transform="translate(180,600) scale(3.4333333333333)"><rect width="6" height="6"/></g>
<g transform="translate(220,600) scale(3.4333333333333)"><rect width="6" height="6"/></g>
<g transform="translate(260,600) scale(3.4333333333333)"><rect width="6" height="6"/></g>
<g transform="translate(300,600) scale(3.4333333333333)"><rect width="6" height="6"/></g>
<g transform="translate(320,600) scale(3.4333333333333)"><rect width="6" height="6"/></g>
<g transform="translate(340,600) scale(3.4333333333333)"><rect width="6" height="6"/></g>
<g transform="translate(380,600) scale(3.4333333333333)"><rect width="6" height="6"/></g>
<g transform="translate(400,600) scale(3.4333333333333)"><rect width="6" height="6"/></g>
<g transform="translate(420,600) scale(3.4333333333333)"><rect width="6" height="6"/></g>
<g transform="translate(440,600) scale(3.4333333333333)"><rect width="6" height="6"/></g>
<g transform="translate(540,600) scale(3.4333333333333)"><rect width="6" height="6"/></g>
<g transform="translate(580,600) scale(3.4333333333333)"><rect width="6" height="6"/></g>
<g transform="translate(600,600) scale(3.4333333333333)"><rect width="6" height="6"/></g>
<g transform="translate(640,600) scale(3.4333333333333)"><rect width="6" height="6"/></g>
<g transform="translate(720,600) scale(3.4333333333333)"><rect width="6" height="6"/></g>
<g transform="translate(740,600) scale(3.4333333333333)"><rect width="6" height="6"/></g>
<g transform="translate(760,600) scale(3.4333333333333)"><rect width="6" height="6"/></g>
<g transform="translate(840,600) scale(3.4333333333333)"><rect width="6" height="6"/></g>
<g transform="translate(880,600) scale(3.4333333333333)"><rect width="6" height="6"/></g>
<g transform="translate(900,600) scale(3.4333333333333)"><rect width="6" height="6"/></g>
<g transform="translate(40,620) scale(3.4333333333333)"><rect width="6" height="6"/></g>
<g transform="translate(220,620) scale(3.4333333333333)"><rect width="6" height="6"/></g>
<g transform="translate(300,620) scale(3.4333333333333)"><rect width="6" height="6"/></g>
<g transform="translate(360,620) scale(3.4333333333333)"><rect width="6" height="6"/></g>
<g transform="translate(380,620) scale(3.4333333333333)"><rect width="6" height="6"/></g>
<g transform="translate(420,620) scale(3.4333333333333)"><rect width="6" height="6"/></g>
<g transform="translate(460,620) scale(3.4333333333333)"><rect width="6" height="6"/></g>
<g transform="translate(480,620) scale(3.4333333333333)"><rect width="6" height="6"/></g>
<g transform="translate(540,620) scale(3.4333333333333)"><rect width="6" height="6"/></g>
<g transform="translate(580,620) scale(3.4333333333333)"><rect width="6" height="6"/></g>
<g transform="translate(640,620) scale(3.4333333333333)"><rect width="6" height="6"/></g>
<g transform="translate(680,620) scale(3.4333333333333)"><rect width="6" height="6"/></g>
<g transform="translate(740,620) scale(3.4333333333333)"><rect width="6" height="6"/></g>
<g transform="translate(800,620) scale(3.4333333333333)"><rect width="6" height="6"/></g>
<g transform="translate(860,620) scale(3.4333333333333)"><rect width="6" height="6"/></g>
<g transform="translate(880,620) scale(3.4333333333333)"><rect width="6" height="6"/></g>
<g transform="translate(900,620) scale(3.4333333333333)"><rect width="6" height="6"/></g>
<g transform="translate(920,620) scale(3.4333333333333)"><rect width="6" height="6"/></g>
<g transform="translate(80,640) scale(3.4333333333333)"><rect width="6" height="6"/></g>
<g transform="translate(140,640) scale(3.4333333333333)"><rect width="6" height="6"/></g>
<g transform="translate(160,640) scale(3.4333333333333)"><rect width="6" height="6"/></g>
<g transform="translate(200,640) scale(3.4333333333333)"><rect width="6" height="6"/></g>
<g transform="translate(220,640) scale(3.4333333333333)"><rect width="6" height="6"/></g>
<g transform="translate(260,640) scale(3.4333333333333)"><rect width="6" height="6"/></g>
<g transform="translate(280,640) scale(3.4333333333333)"><rect width="6" height="6"/></g>
<g transform="translate(320,640) scale(3.4333333333333)"><rect width="6" height="6"/></g>
<g transform="translate(360,640) scale(3.4333333333333)"><rect width="6" height="6"/></g>
<g transform="translate(460,640) scale(3.4333333333333)"><rect width="6" height="6"/></g>
<g transform="translate(520,640) scale(3.4333333333333)"><rect width="6" height="6"/></g>
<g transform="translate(560,640) scale(3.4333333333333)"><rect width="6" height="6"/></g>
<g transform="translate(580,640) scale(3.4333333333333)"><rect width="6" height="6"/></g>
<g transform="translate(600,640) scale(3.4333333333333)"><rect width="6" height="6"/></g>
<g transform="translate(640,640) scale(3.4333333333333)"><rect width="6" height="6"/></g>
<g transform="translate(660,640) scale(3.4333333333333)"><rect width="6" height="6"/></g>
<g transform="translate(700,640) scale(3.4333333333333)"><rect width="6" height="6"/></g>
<g transform="translate(720,640) scale(3.4333333333333)"><rect width="6" height="6"/></g>
<g transform="translate(760,640) scale(3.4333333333333)"><rect width="6" height="6"/></g>
<g transform="translate(780,640) scale(3.4333333333333)"><rect width="6" height="6"/></g>
<g transform="translate(800,640) scale(3.4333333333333)"><rect width="6" height="6"/></g>
<g transform="translate(820,640) scale(3.4333333333333)"><rect width="6" height="6"/></g>
<g transform="translate(900,640) scale(3.4333333333333)"><rect width="6" height="6"/></g>
<g transform="translate(920,640) scale(3.4333333333333)"><rect width="6" height="6"/></g>
<g transform="translate(100,660) scale(3.4333333333333)"><rect width="6" height="6"/></g>
<g transform="translate(120,660) scale(3.4333333333333)"><rect width="6" height="6"/></g>
<g transform="translate(200,660) scale(3.4333333333333)"><rect width="6" height="6"/></g>
<g transform="translate(220,660) scale(3.4333333333333)"><rect width="6" height="6"/></g>
<g transform="translate(260,660) scale(3.4333333333333)"><rect width="6" height="6"/></g>
<g transform="translate(300,660) scale(3.4333333333333)"><rect width="6" height="6"/></g>
<g transform="translate(320,660) scale(3.4333333333333)"><rect width="6" height="6"/></g>
<g transform="translate(400,660) scale(3.4333333333333)"><rect width="6" height="6"/></g>
<g transform="translate(420,660) scale(3.4333333333333)"><rect width="6" height="6"/></g>
<g transform="translate(480,660) scale(3.4333333333333)"><rect width="6" height="6"/></g>
<g transform="translate(520,660) scale(3.4333333333333)"><rect width="6" height="6"/></g>
<g transform="translate(580,660) scale(3.4333333333333)"><rect width="6" height="6"/></g>
<g transform="translate(620,660) scale(3.4333333333333)"><rect width="6" height="6"/></g>
<g transform="translate(640,660) scale(3.4333333333333)"><rect width="6" height="6"/></g>
<g transform="translate(660,660) scale(3.4333333333333)"><rect width="6" height="6"/></g>
<g transform="translate(700,660) scale(3.4333333333333)"><rect width="6" height="6"/></g>
<g transform="translate(740,660) scale(3.4333333333333)"><rect width="6" height="6"/></g>
<g transform="translate(760,660) scale(3.4333333333333)"><rect width="6" height="6"/></g>
<g transform="translate(780,660) scale(3.4333333333333)"><rect width="6" height="6"/></g>
<g transform="translate(800,660) scale(3.4333333333333)"><rect width="6" height="6"/></g>
<g transform="translate(860,660) scale(3.4333333333333)"><rect width="6" height="6"/></g>
<g transform="translate(880,660) scale(3.4333333333333)"><rect width="6" height="6"/></g>
<g transform="translate(920,660) scale(3.4333333333333)"><rect width="6" height="6"/></g>
<g transform="translate(40,680) scale(3.4333333333333)"><rect width="6" height="6"/></g>
<g transform="translate(100,680) scale(3.4333333333333)"><rect width="6" height="6"/></g>
<g transform="translate(120,680) scale(3.4333333333333)"><rect width="6" height="6"/></g>
<g transform="translate(160,680) scale(3.4333333333333)"><rect width="6" height="6"/></g>
<g transform="translate(180,680) scale(3.4333333333333)"><rect width="6" height="6"/></g>
<g transform="translate(200,680) scale(3.4333333333333)"><rect width="6" height="6"/></g>
<g transform="translate(220,680) scale(3.4333333333333)"><rect width="6" height="6"/></g>
<g transform="translate(320,680) scale(3.4333333333333)"><rect width="6" height="6"/></g>
<g transform="translate(340,680) scale(3.4333333333333)"><rect width="6" height="6"/></g>
<g transform="translate(400,680) scale(3.4333333333333)"><rect width="6" height="6"/></g>
<g transform="translate(440,680) scale(3.4333333333333)"><rect width="6" height="6"/></g>
<g transform="translate(460,680) scale(3.4333333333333)"><rect width="6" height="6"/></g>
<g transform="translate(480,680) scale(3.4333333333333)"><rect width="6" height="6"/></g>
<g transform="translate(500,680) scale(3.4333333333333)"><rect width="6" height="6"/></g>
<g transform="translate(520,680) scale(3.4333333333333)"><rect width="6" height="6"/></g>
<g transform="translate(580,680) scale(3.4333333333333)"><rect width="6" height="6"/></g>
<g transform="translate(600,680) scale(3.4333333333333)"><rect width="6" height="6"/></g>
<g transform="translate(640,680) scale(3.4333333333333)"><rect width="6" height="6"/></g>
<g transform="translate(680,680) scale(3.4333333333333)"><rect width="6" height="6"/></g>
<g transform="translate(720,680) scale(3.4333333333333)"><rect width="6" height="6"/></g>
<g transform="translate(760,680) scale(3.4333333333333)"><rect width="6" height="6"/></g>
<g transform="translate(880,680) scale(3.4333333333333)"><rect width="6" height="6"/></g>
<g transform="translate(900,680) scale(3.4333333333333)"><rect width="6" height="6"/></g>
<g transform="translate(40,700) scale(3.4333333333333)"><rect width="6" height="6"/></g>
<g transform="translate(60,700) scale(3.4333333333333)"><rect width="6" height="6"/></g>
<g transform="translate(80,700) scale(3.4333333333333)"><rect width="6" height="6"/></g>
<g transform="translate(140,700) scale(3.4333333333333)"><rect width="6" height="6"/></g>
<g transform="translate(200,700) scale(3.4333333333333)"><rect width="6" height="6"/></g>
<g transform="translate(240,700) scale(3.4333333333333)"><rect width="6" height="6"/></g>
<g transform="translate(280,700) scale(3.4333333333333)"><rect width="6" height="6"/></g>
<g transform="translate(340,700) scale(3.4333333333333)"><rect width="6" height="6"/></g>
<g transform="translate(400,700) scale(3.4333333333333)"><rect width="6" height="6"/></g>
<g transform="translate(420,700) scale(3.4333333333333)"><rect width="6" height="6"/></g>
<g transform="translate(460,700) scale(3.4333333333333)"><rect width="6" height="6"/></g>
<g transform="translate(520,700) scale(3.4333333333333)"><rect width="6" height="6"/></g>
<g transform="translate(540,700) scale(3.4333333333333)"><rect width="6" height="6"/></g>
<g transform="translate(560,700) scale(3.4333333333333)"><rect width="6" height="6"/></g>
<g transform="translate(680,700) scale(3.4333333333333)"><rect width="6" height="6"/></g>
<g transform="translate(700,700) scale(3.4333333333333)"><rect width="6" height="6"/></g>
<g transform="translate(740,700) scale(3.4333333333333)"><rect width="6" height="6"/></g>
<g transform="translate(800,700) scale(3.4333333333333)"><rect width="6" height="6"/></g>
<g transform="translate(860,700) scale(3.4333333333333)"><rect width="6" height="6"/></g>
<g transform="translate(880,700) scale(3.4333333333333)"><rect width="6" height="6"/></g>
<g transform="translate(120,720) scale(3.4333333333333)"><rect width="6" height="6"/></g>
<g transform="translate(160,720) scale(3.4333333333333)"><rect width="6" height="6"/></g>
<g transform="translate(180,720) scale(3.4333333333333)"><rect width="6" height="6"/></g>
<g transform="translate(260,720) scale(3.4333333333333)"><rect width="6" height="6"/></g>
<g transform="translate(280,720) scale(3.4333333333333)"><rect width="6" height="6"/></g>
<g transform="translate(300,720) scale(3.4333333333333)"><rect width="6" height="6"/></g>
<g transform="translate(320,720) scale(3.4333333333333)"><rect width="6" height="6"/></g>
<g transform="translate(360,720) scale(3.4333333333333)"><rect width="6" height="6"/></g>
<g transform="translate(420,720) scale(3.4333333333333)"><rect width="6" height="6"/></g>
<g transform="translate(460,720) scale(3.4333333333333)"><rect width="6" height="6"/></g>
<g transform="translate(500,720) scale(3.4333333333333)"><rect width="6" height="6"/></g>
<g transform="translate(520,720) scale(3.4333333333333)"><rect width="6" height="6"/></g>
<g transform="translate(560,720) scale(3.4333333333333)"><rect width="6" height="6"/></g>
<g transform="translate(580,720) scale(3.4333333333333)"><rect width="6" height="6"/></g>
<g transform="translate(600,720) scale(3.4333333333333)"><rect width="6" height="6"/></g>
<g transform="translate(640,720) scale(3.4333333333333)"><rect width="6" height="6"/></g>
<g transform="translate(660,720) scale(3.4333333333333)"><rect width="6" height="6"/></g>
<g transform="translate(700,720) scale(3.4333333333333)"><rect width="6" height="6"/></g>
<g transform="translate(780,720) scale(3.4333333333333)"><rect width="6" height="6"/></g>
<g transform="translate(800,720) scale(3.4333333333333)"><rect width="6" height="6"/></g>
<g transform="translate(820,720) scale(3.4333333333333)"><rect width="6" height="6"/></g>
<g transform="translate(840,720) scale(3.4333333333333)"><rect width="6" height="6"/></g>
<g transform="translate(880,720) scale(3.4333333333333)"><rect width="6" height="6"/></g>
<g transform="translate(900,720) scale(3.4333333333333)"><rect width="6" height="6"/></g>
<g transform="translate(60,740) scale(3.4333333333333)"><rect width="6" height="6"/></g>
<g transform="translate(80,740) scale(3.4333333333333)"><rect width="6" height="6"/></g>
<g transform="translate(100,740) scale(3.4333333333333)"><rect width="6" height="6"/></g>
<g transform="translate(120,740) scale(3.4333333333333)"><rect width="6" height="6"/></g>
<g transform="translate(200,740) scale(3.4333333333333)"><rect width="6" height="6"/></g>
<g transform="translate(220,740) scale(3.4333333333333)"><rect width="6" height="6"/></g>
<g transform="translate(280,740) scale(3.4333333333333)"><rect width="6" height="6"/></g>
<g transform="translate(320,740) scale(3.4333333333333)"><rect width="6" height="6"/></g>
<g transform="translate(340,740) scale(3.4333333333333)"><rect width="6" height="6"/></g>
<g transform="translate(380,740) scale(3.4333333333333)"><rect width="6" height="6"/></g>
<g transform="translate(420,740) scale(3.4333333333333)"><rect width="6" height="6"/></g>
<g transform="translate(440,740) scale(3.4333333333333)"><rect width="6" height="6"/></g>
<g transform="translate(480,740) scale(3.4333333333333)"><rect width="6" height="6"/></g>
<g transform="translate(500,740) scale(3.4333333333333)"><rect width="6" height="6"/></g>
<g transform="translate(520,740) scale(3.4333333333333)"><rect width="6" height="6"/></g>
<g transform="translate(680,740) scale(3.4333333333333)"><rect width="6" height="6"/></g>
<g transform="translate(740,740) scale(3.4333333333333)"><rect width="6" height="6"/></g>
<g transform="translate(800,740) scale(3.4333333333333)"><rect width="6" height="6"/></g>
<g transform="translate(860,740) scale(3.4333333333333)"><rect width="6" height="6"/></g>
<g transform="translate(880,740) scale(3.4333333333333)"><rect width="6" height="6"/></g>
<g transform="translate(900,740) scale(3.4333333333333)"><rect width="6" height="6"/></g>
<g transform="translate(920,740) scale(3.4333333333333)"><rect width="6" height="6"/></g>
<g transform="translate(40,760) scale(3.4333333333333)"><rect width="6" height="6"/></g>
<g transform="translate(100,760) scale(3.4333333333333)"><rect width="6" height="6"/></g>
<g transform="translate(120,760) scale(3.4333333333333)"><rect width="6" height="6"/></g>
<g transform="translate(160,760) scale(3.4333333333333)"><rect width="6" height="6"/></g>
<g transform="translate(180,760) scale(3.4333333333333)"><rect width="6" height="6"/></g>
<g transform="translate(240,760) scale(3.4333333333333)"><rect width="6" height="6"/></g>
<g transform="translate(260,760) scale(3.4333333333333)"><rect width="6" height="6"/></g>
<g transform="translate(320,760) scale(3.4333333333333)"><rect width="6" height="6"/></g>
<g transform="translate(380,760) scale(3.4333333333333)"><rect width="6" height="6"/></g>
<g transform="translate(440,760) scale(3.4333333333333)"><rect width="6" height="6"/></g>
<g transform="translate(460,760) scale(3.4333333333333)"><rect width="6" height="6"/></g>
<g transform="translate(480,760) scale(3.4333333333333)"><rect width="6" height="6"/></g>
<g transform="translate(500,760) scale(3.4333333333333)"><rect width="6" height="6"/></g>
<g transform="translate(520,760) scale(3.4333333333333)"><rect width="6" height="6"/></g>
<g transform="translate(560,760) scale(3.4333333333333)"><rect width="6" height="6"/></g>
<g transform="translate(600,760) scale(3.4333333333333)"><rect width="6" height="6"/></g>
<g transform="translate(620,760) scale(3.4333333333333)"><rect width="6" height="6"/></g>
<g transform="translate(640,760) scale(3.4333333333333)"><rect width="6" height="6"/></g>
<g transform="translate(660,760) scale(3.4333333333333)"><rect width="6" height="6"/></g>
<g transform="translate(680,760) scale(3.4333333333333)"><rect width="6" height="6"/></g>
<g transform="translate(700,760) scale(3.4333333333333)"><rect width="6" height="6"/></g>
<g transform="translate(740,760) scale(3.4333333333333)"><rect width="6" height="6"/></g>
<g transform="translate(760,760) scale(3.4333333333333)"><rect width="6" height="6"/></g>
<g transform="translate(780,760) scale(3.4333333333333)"><rect width="6" height="6"/></g>
<g transform="translate(800,760) scale(3.4333333333333)"><rect width="6" height="6"/></g>
<g transform="translate(820,760) scale(3.4333333333333)"><rect width="6" height="6"/></g>
<g transform="translate(840,760) scale(3.4333333333333)"><rect width="6" height="6"/></g>
<g transform="translate(860,760) scale(3.4333333333333)"><rect width="6" height="6"/></g>
<g transform="translate(900,760) scale(3.4333333333333)"><rect width="6" height="6"/></g>
<g transform="translate(200,780) scale(3.4333333333333)"><rect width="6" height="6"/></g>
<g transform="translate(220,780) scale(3.4333333333333)"><rect width="6" height="6"/></g>
<g transform="translate(280,780) scale(3.4333333333333)"><rect width="6" height="6"/></g>
<g transform="translate(300,780) scale(3.4333333333333)"><rect width="6" height="6"/></g>
<g transform="translate(340,780) scale(3.4333333333333)"><rect width="6" height="6"/></g>
<g transform="translate(360,780) scale(3.4333333333333)"><rect width="6" height="6"/></g>
<g transform="translate(400,780) scale(3.4333333333333)"><rect width="6" height="6"/></g>
<g transform="translate(440,780) scale(3.4333333333333)"><rect width="6" height="6"/></g>
<g transform="translate(520,780) scale(3.4333333333333)"><rect width="6" height="6"/></g>
<g transform="translate(560,780) scale(3.4333333333333)"><rect width="6" height="6"/></g>
<g transform="translate(640,780) scale(3.4333333333333)"><rect width="6" height="6"/></g>
<g transform="translate(680,780) scale(3.4333333333333)"><rect width="6" height="6"/></g>
<g transform="translate(720,780) scale(3.4333333333333)"><rect width="6" height="6"/></g>
<g transform="translate(760,780) scale(3.4333333333333)"><rect width="6" height="6"/></g>
<g transform="translate(840,780) scale(3.4333333333333)"><rect width="6" height="6"/></g>
<g transform="translate(880,780) scale(3.4333333333333)"><rect width="6" height="6"/></g>
<g transform="translate(920,780) scale(3.4333333333333)"><rect width="6" height="6"/></g>
<g transform="translate(260,800) scale(3.4333333333333)"><rect width="6" height="6"/></g>
<g transform="translate(280,800) scale(3.4333333333333)"><rect width="6" height="6"/></g>
<g transform="translate(300,800) scale(3.4333333333333)"><rect width="6" height="6"/></g>
<g transform="translate(320,800) scale(3.4333333333333)"><rect width="6" height="6"/></g>
<g transform="translate(340,800) scale(3.4333333333333)"><rect width="6" height="6"/></g>
<g transform="translate(360,800) scale(3.4333333333333)"><rect width="6" height="6"/></g>
<g transform="translate(400,800) scale(3.4333333333333)"><rect width="6" height="6"/></g>
<g transform="translate(440,800) scale(3.4333333333333)"><rect width="6" height="6"/></g>
<g transform="translate(480,800) scale(3.4333333333333)"><rect width="6" height="6"/></g>
<g transform="translate(520,800) scale(3.4333333333333)"><rect width="6" height="6"/></g>
<g transform="translate(540,800) scale(3.4333333333333)"><rect width="6" height="6"/></g>
<g transform="translate(560,800) scale(3.4333333333333)"><rect width="6" height="6"/></g>
<g transform="translate(620,800) scale(3.4333333333333)"><rect width="6" height="6"/></g>
<g transform="translate(640,800) scale(3.4333333333333)"><rect width="6" height="6"/></g>
<g transform="translate(700,800) scale(3.4333333333333)"><rect width="6" height="6"/></g>
<g transform="translate(740,800) scale(3.4333333333333)"><rect width="6" height="6"/></g>
<g transform="translate(760,800) scale(3.4333333333333)"><rect width="6" height="6"/></g>
<g transform="translate(800,800) scale(3.4333333333333)"><rect width="6" height="6"/></g>
<g transform="translate(840,800) scale(3.4333333333333)"><rect width="6" height="6"/></g>
<g transform="translate(860,800) scale(3.4333333333333)"><rect width="6" height="6"/></g>
<g transform="translate(880,800) scale(3.4333333333333)"><rect width="6" height="6"/></g>
<g transform="translate(900,800) scale(3.4333333333333)"><rect width="6" height="6"/></g>
<g transform="translate(220,820) scale(3.4333333333333)"><rect width="6" height="6"/></g>
<g transform="translate(240,820) scale(3.4333333333333)"><rect width="6" height="6"/></g>
<g transform="translate(300,820) scale(3.4333333333333)"><rect width="6" height="6"/></g>
<g transform="translate(320,820) scale(3.4333333333333)"><rect width="6" height="6"/></g>
<g transform="translate(360,820) scale(3.4333333333333)"><rect width="6" height="6"/></g>
<g transform="translate(380,820) scale(3.4333333333333)"><rect width="6" height="6"/></g>
<g transform="translate(400,820) scale(3.4333333333333)"><rect width="6" height="6"/></g>
<g transform="translate(440,820) scale(3.4333333333333)"><rect width="6" height="6"/></g>
<g transform="translate(520,820) scale(3.4333333333333)"><rect width="6" height="6"/></g>
<g transform="translate(540,820) scale(3.4333333333333)"><rect width="6" height="6"/></g>
<g transform="translate(560,820) scale(3.4333333333333)"><rect width="6" height="6"/></g>
<g transform="translate(600,820) scale(3.4333333333333)"><rect width="6" height="6"/></g>
<g transform="translate(620,820) scale(3.4333333333333)"><rect width="6" height="6"/></g>
<g transform="translate(640,820) scale(3.4333333333333)"><rect width="6" height="6"/></g>
<g transform="translate(660,820) scale(3.4333333333333)"><rect width="6" height="6"/></g>
<g transform="translate(680,820) scale(3.4333333333333)"><rect width="6" height="6"/></g>
<g transform="translate(740,820) scale(3.4333333333333)"><rect width="6" height="6"/></g>
<g transform="translate(760,820) scale(3.4333333333333)"><rect width="6" height="6"/></g>
<g transform="translate(840,820) scale(3.4333333333333)"><rect width="6" height="6"/></g>
<g transform="translate(860,820) scale(3.4333333333333)"><rect width="6" height="6"/></g>
<g transform="translate(880,820) scale(3.4333333333333)"><rect width="6" height="6"/></g>
<g transform="translate(900,820) scale(3.4333333333333)"><rect width="6" height="6"/></g>
<g transform="translate(200,840) scale(3.4333333333333)"><rect width="6" height="6"/></g>
<g transform="translate(240,840) scale(3.4333333333333)"><rect width="6" height="6"/></g>
<g transform="translate(340,840) scale(3.4333333333333)"><rect width="6" height="6"/></g>
<g transform="translate(380,840) scale(3.4333333333333)"><rect width="6" height="6"/></g>
<g transform="translate(400,840) scale(3.4333333333333)"><rect width="6" height="6"/></g>
<g transform="translate(420,840) scale(3.4333333333333)"><rect width="6" height="6"/></g>
<g transform="translate(440,840) scale(3.4333333333333)"><rect width="6" height="6"/></g>
<g transform="translate(460,840) scale(3.4333333333333)"><rect width="6" height="6"/></g>
<g transform="translate(480,840) scale(3.4333333333333)"><rect width="6" height="6"/></g>
<g transform="translate(500,840) scale(3.4333333333333)"><rect width="6" height="6"/></g>
<g transform="translate(520,840) scale(3.4333333333333)"><rect width="6" height="6"/></g>
<g transform="translate(540,840) scale(3.4333333333333)"><rect width="6" height="6"/></g>
<g transform="translate(560,840) scale(3.4333333333333)"><rect width="6" height="6"/></g>
<g transform="translate(640,840) scale(3.4333333333333)"><rect width="6" height="6"/></g>
<g transform="translate(660,840) scale(3.4333333333333)"><rect width="6" height="6"/></g>
<g transform="translate(720,840) scale(3.4333333333333)"><rect width="6" height="6"/></g>
<g transform="translate(760,840) scale(3.4333333333333)"><rect width="6" height="6"/></g>
<g transform="translate(780,840) scale(3.4333333333333)"><rect width="6" height="6"/></g>
<g transform="translate(800,840) scale(3.4333333333333)"><rect width="6" height="6"/></g>
<g transform="translate(820,840) scale(3.4333333333333)"><rect width="6" height="6"/></g>
<g transform="translate(840,840) scale(3.4333333333333)"><rect width="6" height="6"/></g>
<g transform="translate(860,840) scale(3.4333333333333)"><rect width="6" height="6"/></g>
<g transform="translate(920,840) scale(3.4333333333333)"><rect width="6" height="6"/></g>
<g transform="translate(200,860) scale(3.4333333333333)"><rect width="6" height="6"/></g>
<g transform="translate(220,860) scale(3.4333333333333)"><rect width="6" height="6"/></g>
<g transform="translate(280,860) scale(3.4333333333333)"><rect width="6" height="6"/></g>
<g transform="translate(340,860) scale(3.4333333333333)"><rect width="6" height="6"/></g>
<g transform="translate(420,860) scale(3.4333333333333)"><rect width="6" height="6"/></g>
<g transform="translate(460,860) scale(3.4333333333333)"><rect width="6" height="6"/></g>
<g transform="translate(480,860) scale(3.4333333333333)"><rect width="6" height="6"/></g>
<g transform="translate(500,860) scale(3.4333333333333)"><rect width="6" height="6"/></g>
<g transform="translate(540,860) scale(3.4333333333333)"><rect width="6" height="6"/></g>
<g transform="translate(580,860) scale(3.4333333333333)"><rect width="6" height="6"/></g>
<g transform="translate(620,860) scale(3.4333333333333)"><rect width="6" height="6"/></g>
<g transform="translate(660,860) scale(3.4333333333333)"><rect width="6" height="6"/></g>
<g transform="translate(860,860) scale(3.4333333333333)"><rect width="6" height="6"/></g>
<g transform="translate(880,860) scale(3.4333333333333)"><rect width="6" height="6"/></g>
<g transform="translate(900,860) scale(3.4333333333333)"><rect width="6" height="6"/></g>
<g transform="translate(200,880) scale(3.4333333333333)"><rect width="6" height="6"/></g>
<g transform="translate(220,880) scale(3.4333333333333)"><rect width="6" height="6"/></g>
<g transform="translate(240,880) scale(3.4333333333333)"><rect width="6" height="6"/></g>
<g transform="translate(260,880) scale(3.4333333333333)"><rect width="6" height="6"/></g>
<g transform="translate(280,880) scale(3.4333333333333)"><rect width="6" height="6"/></g>
<g transform="translate(300,880) scale(3.4333333333333)"><rect width="6" height="6"/></g>
<g transform="translate(360,880) scale(3.4333333333333)"><rect width="6" height="6"/></g>
<g transform="translate(420,880) scale(3.4333333333333)"><rect width="6" height="6"/></g>
<g transform="translate(460,880) scale(3.4333333333333)"><rect width="6" height="6"/></g>
<g transform="translate(500,880) scale(3.4333333333333)"><rect width="6" height="6"/></g>
<g transform="translate(540,880) scale(3.4333333333333)"><rect width="6" height="6"/></g>
<g transform="translate(700,880) scale(3.4333333333333)"><rect width="6" height="6"/></g>
<g transform="translate(720,880) scale(3.4333333333333)"><rect width="6" height="6"/></g>
<g transform="translate(760,880) scale(3.4333333333333)"><rect width="6" height="6"/></g>
<g transform="translate(780,880) scale(3.4333333333333)"><rect width="6" height="6"/></g>
<g transform="translate(800,880) scale(3.4333333333333)"><rect width="6" height="6"/></g>
<g transform="translate(820,880) scale(3.4333333333333)"><rect width="6" height="6"/></g>
<g transform="translate(220,900) scale(3.4333333333333)"><rect width="6" height="6"/></g>
<g transform="translate(260,900) scale(3.4333333333333)"><rect width="6" height="6"/></g>
<g transform="translate(320,900) scale(3.4333333333333)"><rect width="6" height="6"/></g>
<g transform="translate(360,900) scale(3.4333333333333)"><rect width="6" height="6"/></g>
<g transform="translate(380,900) scale(3.4333333333333)"><rect width="6" height="6"/></g>
<g transform="translate(400,900) scale(3.4333333333333)"><rect width="6" height="6"/></g>
<g transform="translate(420,900) scale(3.4333333333333)"><rect width="6" height="6"/></g>
<g transform="translate(480,900) scale(3.4333333333333)"><rect width="6" height="6"/></g>
<g transform="translate(520,900) scale(3.4333333333333)"><rect width="6" height="6"/></g>
<g transform="translate(600,900) scale(3.4333333333333)"><rect width="6" height="6"/></g>
<g transform="translate(620,900) scale(3.4333333333333)"><rect width="6" height="6"/></g>
<g transform="translate(700,900) scale(3.4333333333333)"><rect width="6" height="6"/></g>
<g transform="translate(740,900) scale(3.4333333333333)"><rect width="6" height="6"/></g>
<g transform="translate(820,900) scale(3.4333333333333)"><rect width="6" height="6"/></g>
<g transform="translate(840,900) scale(3.4333333333333)"><rect width="6" height="6"/></g>
<g transform="translate(880,900) scale(3.4333333333333)"><rect width="6" height="6"/></g>
<g transform="translate(260,920) scale(3.4333333333333)"><rect width="6" height="6"/></g>
<g transform="translate(280,920) scale(3.4333333333333)"><rect width="6" height="6"/></g>
<g transform="translate(300,920) scale(3.4333333333333)"><rect width="6" height="6"/></g>
<g transform="translate(320,920) scale(3.4333333333333)"><rect width="6" height="6"/></g>
<g transform="translate(400,920) scale(3.4333333333333)"><rect width="6" height="6"/></g>
<g transform="translate(420,920) scale(3.4333333333333)"><rect width="6" height="6"/></g>
<g transform="translate(500,920) scale(3.4333333333333)"><rect width="6" height="6"/></g>
<g transform="translate(520,920) scale(3.4333333333333)"><rect width="6" height="6"/></g>
<g transform="translate(540,920) scale(3.4333333333333)"><rect width="6" height="6"/></g>
<g transform="translate(620,920) scale(3.4333333333333)"><rect width="6" height="6"/></g>
<g transform="translate(700,920) scale(3.4333333333333)"><rect width="6" height="6"/></g>
<g transform="translate(760,920) scale(3.4333333333333)"><rect width="6" height="6"/></g>
<g transform="translate(780,920) scale(3.4333333333333)"><rect width="6" height="6"/></g>
<g transform="translate(800,920) scale(3.4333333333333)"><rect width="6" height="6"/></g>
<g transform="translate(900,920) scale(3.4333333333333)"><rect width="6" height="6"/></g>
<g transform="translate(40,40)"><g transform="scale(10)"><path d="M0,0v14h14V0H0z M12,12H2V2h10V12z"/></g></g>
<g transform="translate(800,40)"><g transform="scale(10)"><path d="M0,0v14h14V0H0z M12,12H2V2h10V12z"/></g></g>
<g transform="translate(40,800)"><g transform="scale(10)"><path d="M0,0v14h14V0H0z M12,12H2V2h10V12z"/></g></g>
<g transform="translate(80,80)"><g transform="scale(10)"><rect width="6" height="6"/></g></g>
<g transform="translate(840,80)"><g transform="scale(10)"><rect width="6" height="6"/></g></g>
<g transform="translate(80,840)"><g transform="scale(10)"><rect width="6" height="6"/></g></g>
</g></svg>
